<?xml version="1.0" standalone="no"?>
<!DOCTYPE svg PUBLIC "-//W3C//DTD SVG 20010904//EN"
 "http://www.w3.org/TR/2001/REC-SVG-20010904/DTD/svg10.dtd">
<svg version="1.0" xmlns="http://www.w3.org/2000/svg"
 width="512.000000pt" height="512.000000pt" viewBox="0 0 512.000000 512.000000"
 preserveAspectRatio="xMidYMid meet">

<g transform="translate(0.000000,512.000000) scale(0.100000,-0.100000)"
fill="#ffffffa6" stroke="none">
<path d="M2244 4075 c-802 -104 -1539 -547 -2123 -1278 -112 -141 -121 -158
-121 -235 0 -77 11 -100 108 -222 536 -674 1208 -1115 1920 -1260 334 -67 730
-67 1064 0 706 144 1379 583 1907 1243 112 141 121 158 121 235 0 77 -11 100
-108 222 -594 747 -1335 1195 -2142 1295 -151 18 -481 18 -626 0z m568 -479
c195 -49 343 -132 491 -275 369 -359 430 -914 146 -1351 -55 -84 -215 -244
-299 -299 -309 -201 -684 -233 -1019 -88 -232 101 -447 316 -547 547 -63 146
-87 264 -87 430 0 156 12 230 59 360 53 150 116 251 231 371 152 159 310 253
514 305 156 40 349 40 511 0z"/>
<path d="M2440 3135 c-78 -17 -189 -72 -251 -122 -142 -117 -230 -317 -215
-490 23 -258 183 -455 431 -529 89 -27 240 -24 325 5 157 54 281 159 350 295
101 201 89 410 -34 594 -76 113 -192 198 -326 239 -70 21 -205 25 -280 8z"/>
</g>
</svg>
